<?xml version="1.0" encoding="iso-8859-1"?>
<!-- Generator: Adobe Illustrator 19.0.0, SVG Export Plug-In . SVG Version: 6.00 Build 0)  -->
<svg version="1.1" id="Capa_1" xmlns="http://www.w3.org/2000/svg" xmlns:xlink="http://www.w3.org/1999/xlink" x="0px" y="0px"
	 viewBox="0 0 368 368" style="enable-background:new 0 0 368 368;" xml:space="preserve">
<g>
	<g>
		<path d="M344,0H24C10.768,0,0,10.768,0,24v320c0,13.232,10.768,24,24,24h320c13.232,0,24-10.768,24-24V24
			C368,10.768,357.232,0,344,0z M80,16h48v48H80V16z M16,24c0-4.408,3.584-8,8-8h40v48H16V24z M352,344c0,4.408-3.584,8-8,8H24
			c-4.416,0-8-3.592-8-8V80h336V344z M352,64H144V16h200c4.416,0,8,3.592,8,8V64z"/>
	</g>
</g>
<g>
	<g>
		<path d="M317.2,209.928l-56-48c-3.344-2.864-8.408-2.488-11.272,0.864c-2.88,3.352-2.496,8.408,0.864,11.28L299.712,216
			L250.8,257.928c-3.36,2.872-3.752,7.928-0.864,11.28c1.568,1.84,3.816,2.792,6.064,2.792c1.84,0,3.696-0.632,5.2-1.928l56-48
			c1.776-1.52,2.8-3.736,2.8-6.072S318.976,211.448,317.2,209.928z"/>
	</g>
</g>
<g>
	<g>
		<path d="M117.208,257.928L68.288,216l48.912-41.928c3.36-2.872,3.752-7.92,0.872-11.28c-2.864-3.352-7.92-3.736-11.272-0.864
			l-56,48c-1.776,1.52-2.8,3.736-2.8,6.072s1.024,4.552,2.8,6.072l56,48c1.504,1.296,3.36,1.928,5.2,1.928
			c2.248,0,4.496-0.952,6.072-2.792C120.952,265.856,120.568,260.8,117.208,257.928z"/>
	</g>
</g>
<g>
	<g>
		<path d="M210.816,144.504c-4.144-1.536-8.752,0.536-10.304,4.68l-48,128c-1.544,4.136,0.544,8.744,4.68,10.304
			C158.12,287.832,159.064,288,160,288c3.232,0,6.288-1.984,7.496-5.192l48-128C217.04,150.672,214.944,146.064,210.816,144.504z"/>
	</g>
</g>
<g>
</g>
<g>
</g>
<g>
</g>
<g>
</g>
<g>
</g>
<g>
</g>
<g>
</g>
<g>
</g>
<g>
</g>
<g>
</g>
<g>
</g>
<g>
</g>
<g>
</g>
<g>
</g>
<g>
</g>
</svg>
